<svg xmlns="http://www.w3.org/2000/svg" xmlns:xlink="http://www.w3.org/1999/xlink"><defs><clipPath id="clip0_115983_367"><path fill="#fff" transform="translate(0 .5)" d="M0 0h128v24H0z"/></clipPath></defs><symbol id="icon-arrow-right"><g fill="currentColor"><path stroke="#000" stroke-width="2" d="M0 6h18"/><path d="M24 6l-6.75 5.196V.804L24 6z"/></g></symbol><symbol id="icon-footer-logo-text"><g fill="none"><g clip-path="url(#clip0_115983_367)" fill="currentColor"><path d="M1.624 22.457A9.428 9.428 0 01.02 16.738V8.262A9.559 9.559 0 011.523 2.44C2.625 1.113 4.327.5 6.831.5c2.503 0 4.106.613 5.107 1.736A7.433 7.433 0 0113.44 7.24v2.043H8.533V6.934a5.116 5.116 0 00-.3-2.043 1.46 1.46 0 00-.579-.627 1.42 1.42 0 00-.823-.19c-.701 0-1.202.205-1.402.715a6.72 6.72 0 00-.3 2.247v10.928a4.3 4.3 0 00.4 2.145c.2.51.701.714 1.402.714s1.102-.204 1.302-.715c.227-.69.33-1.417.3-2.144v-2.451h4.907v2.042a7.922 7.922 0 01-1.502 5.107C10.937 23.887 9.234 24.5 6.831 24.5c-2.403-.102-4.206-.715-5.207-2.043zM19.348.806h5.708l4.206 23.285h-4.606l-.801-4.902H20.55l-.801 4.902h-4.707L19.348.806zm4.106 15.32l-1.202-9.09-1.201 9.09h2.403zM32.767 4.687h-3.405V.807H41.28v3.778h-3.405V24.09h-5.107V4.687zM50.392.806h8.812v2.451h-5.708v7.66h4.606v2.349h-4.606v8.578h5.708v2.35H50.29V.805h.1zM61.808.806h2.203l6.509 15.421V.807h2.603V24.09h-2.002L64.51 8.16v15.932h-2.703V.806zM76.128.806h8.812v2.451h-5.708v7.66h4.606v2.349h-4.606v8.578h5.708v2.35h-8.812V.805zM87.543.806h4.607a7.896 7.896 0 015.107 1.43c1.102.919 1.602 2.553 1.602 4.698 0 2.961-.901 4.8-2.804 5.413l3.205 11.642h-3.105l-3.004-10.928h-2.503V23.99h-3.205V.806h.1zm4.407 10.009a4.314 4.314 0 002.904-.817c.6-.511.901-1.532.901-3.064a6.72 6.72 0 00-.3-2.247 2.576 2.576 0 00-1.102-1.226 4.489 4.489 0 00-2.203-.408h-1.402v7.66h1.202v.102zM102.865 22.355a10.485 10.485 0 01-1.402-5.923V8.67c-.025-1.48.144-2.957.501-4.391a5.186 5.186 0 011.902-2.656 6.438 6.438 0 013.705-.919c2.103 0 3.606.51 4.507 1.634a7.93 7.93 0 011.402 5.107v.817h-3.004v-.715c.004-.855-.063-1.71-.201-2.553a2.045 2.045 0 00-.801-1.328 3.05 3.05 0 00-1.903-.51 2.961 2.961 0 00-2.002.612 2.331 2.331 0 00-.801 1.634 19.568 19.568 0 00-.201 2.758v8.68a9.433 9.433 0 00.601 3.881c.401.817 1.202 1.124 2.403 1.124.475.06.956-.024 1.384-.242.428-.218.782-.56 1.02-.984a9.572 9.572 0 00.701-4.085V14.9h-2.904v-2.349h5.808v11.54h-2.003l-.3-2.655a4.172 4.172 0 01-1.553 2.202 4.03 4.03 0 01-2.553.76 4.924 4.924 0 01-2.406-.468 5.032 5.032 0 01-1.9-1.575zM119.989 15.921L115.082.908h3.004l3.505 11.234L124.996.908H128l-4.907 15.013v8.17h-3.004v-8.17h-.1z"/></g></g></symbol><symbol id="icon-mail"><g fill="none"><path d="M.5 5.5v8h17v-8M.5.5h17v2L9 8.5l-8.5-6v-2z" stroke="currentColor" stroke-linecap="round" stroke-linejoin="round"/></g></symbol><symbol id="icon-phone"><g fill="none"><path d="M7 8h8.5m0 0L13 5.5M15.5 8L13 10.5M5.5.5v5h-3v5h3v5H3c-1.5 0-2.5-1-2.5-2.5V3C.5 1.5 1.5.5 3 .5h2.5z" stroke="currentColor" stroke-linecap="round" stroke-linejoin="round"/></g></symbol><symbol id="icon-slider"><g fill="currentColor"><path d="M8 0L0 9l8 9V0zM24 9l-8-9v18l8-9z"/></g></symbol><symbol id="icon-social-academy"><g fill="currentColor"><path d="M14.143.016L14 0 .5 1.407v24.606L14 34l13.5-7.987V1.407L14.143.016zm11.591 25L14 31.956 2.266 25.015V14.93l11.685 6.916.02 1.253-8.017-4.743-.011 1.225 8.046 4.809.02 1.286-8.045-4.758-.01 1.226L14 26.95l8.124-4.833V16.91l3.62-2.15-.01 10.256zm0-11.564l-3.22 1.88-1.482.875-7.065-4.187-.011 1.225 6.04 3.573-.053.031-.13.076-.86.492-4.986-2.948-.011 1.225 3.936 2.328-.933.61-.021.012-2.971-1.742-.011 1.225 1.947 1.135-1.988 1.186-11.618-6.872 11.638-6.958 11.8 6.834zm0-1.225L13.94 5.31 2.266 12.22V2.99L14 1.764 25.734 2.99v9.237z"/></g></symbol><symbol id="icon-social-telegram"><g fill="currentColor"><path fill-rule="evenodd" d="M19.46.15c.17.15.26.38.22.61l-2.62 15.76c-.04.22-.19.4-.39.49-.21.09-.44.07-.63-.06L8.17 11.7a.635.635 0 01-.29-.44.63.63 0 01.14-.51l2.61-3.27-4.36 2.91c-.2.13-.45.15-.66.04L.36 7.8A.627.627 0 010 7.18c.01-.27.18-.49.43-.58L18.81.03c.22-.08.47-.03.65.12zM2.32 7.32l3.54 1.77 7.56-5.05a.67.67 0 01.85.11c.22.24.23.6.02.85l-4.8 6.01 6.44 4.29L18.2 1.65 2.32 7.32z"/></g></symbol><symbol id="icon-social-vk"><g fill="currentColor"><path d="M0 2.33C0 1.48.51 1.02 1.54.95l3.97.03c.27 0 .44.12.53.37.41 1.26.87 2.35 1.38 3.26.5.91 1.16 1.97 1.98 3.16.07.15.19.22.35.22.12 0 .22-.06.29-.17l.08-.28.03-4.35c0-.3-.08-.5-.23-.6-.15-.11-.43-.18-.84-.23-.32-.05-.48-.24-.48-.55 0-.07.01-.12.03-.16C9 .57 10.07.02 11.82.02l1.5-.02c.67 0 1.23.15 1.68.47.44.32.66.82.66 1.51v5.71c.13.08.24.13.35.13.26 0 .49-.15.69-.46 1.95-2.58 3.01-4.31 3.17-5.18 0-.01.02-.06.05-.12.13-.25.33-.47.62-.66.28-.18.53-.31.74-.37a.47.47 0 01.24-.05h4.13l.27.02c.35 0 .63.16.82.48.08.1.12.21.15.33.03.11.05.23.05.35.01.12.02.18.02.2v.17c-.13.69-.44 1.43-.95 2.21-.5.78-1.15 1.62-1.93 2.52-.78.91-1.27 1.5-1.46 1.79-.16.2-.24.38-.24.55 0 .14.07.29.21.45l3.89 4.63c.21.27.32.56.32.88 0 .39-.16.71-.48.96-.32.25-.7.39-1.15.42l-.45.03h-4.05c-.02 0-.05 0-.11.01-.05.01-.09.02-.1.02-.39 0-.76-.16-1.1-.48-.12-.14-.95-1.13-2.5-2.97-.09-.12-.21-.23-.37-.33-.07.27-.17.66-.28 1.16-.12.5-.2.86-.26 1.08l-.08.43c-.17.59-.55.94-1.11 1.05l-.38.03h-2.61c-1.47 0-2.94-.64-4.41-1.91-1.46-1.28-2.78-2.92-3.95-4.94C2.23 8.1 1.14 5.75.13 3.06.04 2.85 0 2.6 0 2.33zm16.01 6.52c-.38 0-.71-.1-1.01-.29-.31-.19-.46-.46-.46-.79V1.98c0-.33-.09-.57-.26-.71-.18-.15-.49-.22-.94-.22l-1.52.05c-.76 0-1.34.13-1.73.38.78.35 1.18.92 1.18 1.71v4.42c-.04.42-.22.77-.54 1.05-.32.28-.67.41-1.06.41-.54 0-.94-.24-1.23-.73-1.38-1.97-2.41-3.85-3.09-5.63l-.24-.65-3.54-.03c-.23 0-.36.01-.39.04-.03.02-.04.1-.04.21 0 .15.02.31.05.48l.56 1.41c1.5 3.64 3.12 6.5 4.87 8.6 1.75 2.1 3.46 3.14 5.15 3.14h2.67c.1 0 .18-.03.24-.08.05-.06.09-.18.13-.34l.05-.26.51-2.21c.14-.3.26-.5.37-.6.2-.19.43-.28.69-.28.43 0 .87.24 1.31.73L20 15.59c.15.21.3.32.46.32h4.39c.54 0 .8-.12.8-.37a.44.44 0 00-.08-.26l-3.86-4.55c-.3-.35-.45-.73-.45-1.13 0-.4.14-.79.42-1.16.23-.33.68-.89 1.35-1.67.66-.78 1.25-1.51 1.74-2.19.5-.67.83-1.29.99-1.84l.08-.33a.323.323 0 01-.03-.16.92.92 0 00-.02-.19H21.6c-.26.1-.48.25-.64.45l-.16.48c-.44 1.15-1.6 2.94-3.49 5.35-.37.34-.81.51-1.3.51z"/></g></symbol><symbol id="icon-social-youtube"><g fill="currentColor"><path d="M15.85 8.79L10.61 5.3a.568.568 0 00-.33-.11.573.573 0 00-.34.08.64.64 0 00-.25.24c-.06.1-.09.21-.1.33v6.98c.01.12.04.24.1.34.06.1.15.19.25.24.11.06.22.08.34.08a.65.65 0 00.33-.11l5.24-3.49c.09-.06.16-.14.21-.24.05-.09.08-.2.08-.31a.659.659 0 00-.29-.54zM10.9 11.6V7.06l3.41 2.27-3.41 2.27zm12.48-8.56c-.09-.37-.27-.71-.52-.99-.26-.29-.57-.51-.93-.65C18.21-.03 12.25 0 12 0c-.26 0-6.22-.03-9.94 1.4-.36.14-.67.36-.93.65-.25.28-.43.62-.52.99C.32 4.11 0 6.07 0 9.33c0 3.27.32 5.23.61 6.3.09.37.27.71.52.99.26.29.57.51.93.64 3.72 1.43 9.68 1.41 9.94 1.41h.07c.75 0 6.32-.04 9.86-1.41.36-.13.67-.35.93-.64.25-.28.43-.62.52-.99.29-1.07.62-3.03.62-6.3 0-3.26-.33-5.22-.62-6.29zM22.12 15.3a1.09 1.09 0 01-.66.74c-3.49 1.34-9.4 1.32-9.46 1.32-.07 0-5.98.02-9.47-1.32a1.09 1.09 0 01-.66-.74c-.26-1-.57-2.85-.57-5.97 0-3.12.31-4.96.57-5.96.04-.17.13-.32.24-.45.11-.13.26-.23.42-.3C6.02 1.28 11.93 1.3 12 1.3c.06 0 5.97-.02 9.46 1.32.16.07.31.17.42.3.11.13.2.28.24.45.26 1 .57 2.84.57 5.96s-.31 4.97-.57 5.97z"/></g></symbol></svg>